# xmcd
#
# Track frame offsets: 
#        150
#        11268
#        22578
#        33636
#        46488
#        65910
#        75609
#        91749
#        102185
#        115476
#        132650
#
# Disc length: 1938 seconds
#
# Revision: 0
# Processed by: cddbd v1.5.2PL0 Copyright (c) Steve Scherf et al.
# Submitted via: ExactAudioCopy v0.99pb5
#
DISCID=8807900b
DTITLE=Guitar Red - Lightnin' In A Bottle
DYEAR=2008
DGENRE=Blues
TTITLE0=Box Car No. 9
TTITLE1=Lips Poked Out
TTITLE2=Ain't Got Nobody But Myself
TTITLE3=Three Legged Dog Blues
TTITLE4=Chain Gang Blues
TTITLE5=Lightnin' In A Bottle
TTITLE6=Out My Mind
TTITLE7=Decatur Boy Blues
TTITLE8=I Believe
TTITLE9=Song About A Jimi Hendrix Song
TTITLE10=Monologue
EXTD=
EXTT0=
EXTT1=
EXTT2=
EXTT3=
EXTT4=
EXTT5=
EXTT6=
EXTT7=
EXTT8=
EXTT9=
EXTT10=
PLAYORDER=
